<svg width="18px" height="15px" viewBox="0 0 18 15" version="1.1" xmlns="http://www.w3.org/2000/svg" xmlns:xlink="http://www.w3.org/1999/xlink"><g id="Page-1" stroke="none" stroke-width="1" fill="none" fill-rule="evenodd"><g id="Thumbs-up-and-trophy-DT" transform="translate(-215.000000, -603.000000)" fill="#FFFFFF" fill-rule="nonzero"><g id="Group-24" transform="translate(215.000000, 603.000000)"><path d="M16.5343782,5.8933365 L12.699031,5.89233182 C12.4947991,5.89233182 11.7785477,5.57089591 12.3413925,4.65981794 C12.699031,3.96371631 12.699031,1.33797058 12.699031,1.33797058 C12.699031,0.588613454 12.1361861,0 11.4209092,0 C10.7046504,0 10.1418301,0.588639169 10.1418301,1.33897346 C10.1418301,5.24943427 6.5625,6.42871837 6.5625,6.42871837 L6.5625,13.3928204 C8.19924209,13.9824625 8.60769123,15 10.6538643,15 L14.4892115,15 C15.2054703,15 15.7673333,14.410358 15.7673333,13.6610265 C15.7673333,13.3395906 15.6647375,13.0713845 15.5113162,12.8574367 C16.227575,12.8574367 16.789438,12.2677947 16.789438,11.5184633 C16.789438,11.1970274 16.6868422,10.8755914 16.4826102,10.6073853 C16.9936626,10.3934298 17.3004904,9.91128369 17.3004904,9.37487143 C17.3004904,9.05343551 17.1978945,8.73199959 16.9936626,8.46379346 C17.4548615,8.3030755 17.8125,7.82092162 17.8125,7.23228245 C17.8125,6.48194996 17.2496551,5.8933365 16.5343782,5.8933365 Z" id="Path-Copy"></path><path d="M3.51444384,5 L0,5 L0,13.4375 L3.51579374,13.4375 C4.71146058,13.4375 5.625,12.7423556 5.625,11.9485855 L5.62368149,6.48891453 C5.62368149,5.64487866 4.71014208,5 3.51447523,5 L3.51444384,5 Z" id="Path-Copy-2"></path></g></g></g></svg>